<svg width="41" height="32" viewBox="0 0 41 32" fill="none" xmlns="http://www.w3.org/2000/svg">
<g filter="url(#filter0_d_14949_75)">
<path d="M4 7C4 4.79086 5.79086 3 8 3H33C35.2091 3 37 4.79086 37 7V23C37 25.2091 35.2091 27 33 27H8C5.79086 27 4 25.2091 4 23V7Z" fill="white"/>
<path d="M8 3.5H33C34.933 3.5 36.5 5.067 36.5 7V23C36.5 24.933 34.933 26.5 33 26.5H8C6.067 26.5 4.5 24.933 4.5 23V7L4.50488 6.82031C4.59842 4.97083 6.12727 3.5 8 3.5Z" stroke="#DADEE6"/>
<path d="M14.6953 19.1598C14.3899 19.1598 14.1106 19.0852 13.8572 18.9361C13.6039 18.7846 13.4027 18.5821 13.2536 18.3288C13.1044 18.0755 13.0298 17.7973 13.0298 17.4943C13.0298 17.1866 13.1044 16.9072 13.2536 16.6562C13.4027 16.4029 13.6039 16.2005 13.8572 16.049C14.1106 15.8975 14.3887 15.8217 14.6918 15.8217H15.3949V14.8984H14.6918C14.3887 14.8984 14.1106 14.8239 13.8572 14.6747C13.6039 14.5256 13.4027 14.3255 13.2536 14.0746C13.1044 13.8213 13.0298 13.5407 13.0298 13.233C13.0298 12.9252 13.1044 12.6458 13.2536 12.3949C13.4027 12.1439 13.6039 11.9439 13.8572 11.7947C14.1106 11.6432 14.3887 11.5675 14.6918 11.5675C15.0019 11.5675 15.2824 11.6432 15.5334 11.7947C15.7867 11.9439 15.9879 12.1439 16.1371 12.3949C16.2886 12.6458 16.3643 12.9252 16.3643 13.233V13.9254H17.2912V13.233C17.2912 12.9252 17.3658 12.6458 17.5149 12.3949C17.6641 12.1439 17.8641 11.9439 18.1151 11.7947C18.3684 11.6432 18.6477 11.5675 18.9531 11.5675C19.2609 11.5675 19.5402 11.6432 19.7912 11.7947C20.0445 11.9439 20.2457 12.1439 20.3949 12.3949C20.544 12.6458 20.6186 12.9252 20.6186 13.233C20.6186 13.5407 20.544 13.8213 20.3949 14.0746C20.2457 14.3255 20.0445 14.5256 19.7912 14.6747C19.5402 14.8239 19.2609 14.8984 18.9531 14.8984H18.2607V15.8217H18.9531C19.2609 15.8217 19.5402 15.8975 19.7912 16.049C20.0445 16.2005 20.2457 16.4029 20.3949 16.6562C20.544 16.9072 20.6186 17.1866 20.6186 17.4943C20.6186 17.7997 20.544 18.0791 20.3949 18.3324C20.2457 18.5833 20.0445 18.7846 19.7912 18.9361C19.5402 19.0852 19.2609 19.1598 18.9531 19.1598C18.6477 19.1598 18.3684 19.0852 18.1151 18.9361C17.8641 18.7846 17.6641 18.5821 17.5149 18.3288C17.3658 18.0755 17.2912 17.7973 17.2912 17.4943V16.7947H16.3643V17.4943C16.3643 17.7973 16.2886 18.0755 16.1371 18.3288C15.9879 18.5821 15.7867 18.7846 15.5334 18.9361C15.2824 19.0852 15.0031 19.1598 14.6953 19.1598ZM14.6918 18.1868C14.822 18.1868 14.9392 18.156 15.0433 18.0945C15.1499 18.0329 15.2351 17.9489 15.299 17.8423C15.3629 17.7358 15.3949 17.6198 15.3949 17.4943V16.7947H14.6953C14.5675 16.7947 14.4503 16.8267 14.3438 16.8906C14.2396 16.9522 14.1555 17.0362 14.0916 17.1428C14.0301 17.2493 13.9993 17.3665 13.9993 17.4943C13.9993 17.6198 14.0301 17.7358 14.0916 17.8423C14.1555 17.9489 14.2396 18.0329 14.3438 18.0945C14.4503 18.156 14.5663 18.1868 14.6918 18.1868ZM14.6918 13.9254H15.3949V13.233C15.3949 13.1051 15.3629 12.9891 15.299 12.8849C15.2351 12.7784 15.1499 12.6944 15.0433 12.6328C14.9392 12.5713 14.822 12.5405 14.6918 12.5405C14.5663 12.5405 14.4503 12.5713 14.3438 12.6328C14.2396 12.6944 14.1555 12.7784 14.0916 12.8849C14.0301 12.9891 13.9993 13.1051 13.9993 13.233C13.9993 13.3608 14.0301 13.478 14.0916 13.5845C14.1555 13.6887 14.2396 13.7715 14.3438 13.8331C14.4503 13.8946 14.5663 13.9254 14.6918 13.9254ZM18.2607 13.9254H18.9531C19.0833 13.9254 19.2005 13.8946 19.3047 13.8331C19.4089 13.7715 19.4917 13.6887 19.5533 13.5845C19.6172 13.478 19.6491 13.3608 19.6491 13.233C19.6491 13.1051 19.6172 12.9891 19.5533 12.8849C19.4917 12.7784 19.4089 12.6944 19.3047 12.6328C19.2005 12.5713 19.0833 12.5405 18.9531 12.5405C18.8253 12.5405 18.7081 12.5713 18.6016 12.6328C18.4974 12.6944 18.4145 12.7784 18.353 12.8849C18.2914 12.9891 18.2607 13.1051 18.2607 13.233V13.9254ZM18.9567 18.1868C19.0845 18.1868 19.2005 18.156 19.3047 18.0945C19.4089 18.0329 19.4917 17.9489 19.5533 17.8423C19.6172 17.7358 19.6491 17.6198 19.6491 17.4943C19.6491 17.3665 19.6172 17.2493 19.5533 17.1428C19.4917 17.0362 19.4089 16.9522 19.3047 16.8906C19.2005 16.8267 19.0833 16.7947 18.9531 16.7947H18.2607V17.4943C18.2607 17.6222 18.2914 17.7393 18.353 17.8459C18.4145 17.95 18.4974 18.0329 18.6016 18.0945C18.7081 18.156 18.8265 18.1868 18.9567 18.1868ZM16.3643 15.8217H17.2912V14.8984H16.3643V15.8217ZM22.2805 19V11.7273H23.8182V14.9339H23.9141L26.5312 11.7273H28.3743L25.6754 14.9837L28.4062 19H26.5668L24.5746 16.0099L23.8182 16.9332V19H22.2805Z" fill="#475166"/>
</g>
<defs>
<filter id="filter0_d_14949_75" x="0" y="0" width="41" height="32" filterUnits="userSpaceOnUse" color-interpolation-filters="sRGB">
<feFlood flood-opacity="0" result="BackgroundImageFix"/>
<feColorMatrix in="SourceAlpha" type="matrix" values="0 0 0 0 0 0 0 0 0 0 0 0 0 0 0 0 0 0 127 0" result="hardAlpha"/>
<feOffset dy="1"/>
<feGaussianBlur stdDeviation="2"/>
<feColorMatrix type="matrix" values="0 0 0 0 0.376471 0 0 0 0 0.419608 0 0 0 0 0.501961 0 0 0 0.05 0"/>
<feBlend mode="normal" in2="BackgroundImageFix" result="effect1_dropShadow_14949_75"/>
<feBlend mode="normal" in="SourceGraphic" in2="effect1_dropShadow_14949_75" result="shape"/>
</filter>
</defs>
</svg>
